<?xml version="1.0" encoding="UTF-8"?>
<!DOCTYPE svg PUBLIC "-//W3C//DTD SVG 1.0//EN" "http://www.w3.org/TR/2001/REC-SVG-20010904/DTD/svg10.dtd">
<!-- Creator: CorelDRAW X6 -->
<svg xmlns="http://www.w3.org/2000/svg" xml:space="preserve" width="75px" height="22px" version="1.0" style="shape-rendering:geometricPrecision; text-rendering:geometricPrecision; image-rendering:optimizeQuality; fill-rule:evenodd; clip-rule:evenodd"
viewBox="0 0 75000 22000"
 xmlns:xlink="http://www.w3.org/1999/xlink">
 <defs>
  <style type="text/css">
   <![CDATA[
    .fil1 {fill:#7987B8;fill-rule:nonzero;fill-opacity:0.501961}
    .fil0 {fill:#DADFF0;fill-rule:nonzero;fill-opacity:0.501961}
   ]]>
  </style>
 </defs>
 <g id="Слой_x0020_1">
  <metadata id="CorelCorpID_0Corel-Layer"/>
  <g id="_642114192">
   <g id="_638606400">
    <path class="fil0" d="M33913 5115c0,996 -92,2037 -274,3033 2057,-1585 4068,-2399 6033,-2399 2651,0 4114,1403 4114,4029l0 3622c0,-4753 3748,-8601 8364,-8601 4616,0 8364,3848 8364,8601 0,4753 -3748,8601 -8364,8601 -4616,0 -8364,-3848 -8364,-8601l0 7289 -4387 0 0 -9552c0,-1086 -228,-1721 -1416,-1721 -1051,0 -2423,453 -4068,1313l0 9960 -4433 0 0 -20688 4433 0 0 5070 -1 45zm16819 3260c-366,0 -1005,271 -1280,543 -92,679 549,1223 0,1810 -594,679 -1188,-45 -1965,91 -228,272 -503,860 -503,1222 503,679 1372,498 1326,1449 -46,815 -914,679 -1326,1358 46,317 320,996 549,1177 685,136 1280,-498 1828,-45 777,634 -46,1268 137,1992 274,272 869,498 1280,498 639,-408 457,-1358 1416,-1313 777,45 777,905 1326,1313 366,0 960,-226 1234,-453 228,-769 -549,-1268 46,-1901 595,-633 1234,45 1965,-45 274,-362 457,-815 503,-1222 -457,-634 -1371,-543 -1325,-1403 46,-860 960,-679 1325,-1403 0,-362 -274,-951 -549,-1177 -823,-136 -1372,634 -2011,-136 -639,-815 914,-1539 -503,-2128 -1416,-589 -869,906 -1828,1086 -1097,226 -914,-860 -1600,-1268l-46 -45z"/>
    <path class="fil0" d="M14717 6473c2651,-453 5210,-724 7679,-724 4250,0 5348,1313 5622,5342 92,1675 228,6654 -274,8013 -503,1403 -1965,1539 -5027,1766 -1234,91 -2742,181 -4387,181 -2651,0 -4753,-1403 -4662,-4210l46 -1494c92,-2625 2193,-3712 4616,-3712l5256 0 0 -634c0,-770 -137,-1268 -457,-1494 -320,-271 -960,-362 -1874,-362 -1646,0 -3702,91 -6216,226l-320 -2943 -2 45zm3337 9824c-46,996 549,1494 1691,1494 1188,0 2605,-45 3839,-362l0 -3078 -4068 0c-960,0 -1462,498 -1462,1403l0 544z"/>
    <polygon class="fil0" points="16865,3983 10695,3983 10695,20732 6125,20732 6125,3983 0,3983 0,361 16865,361 "/>
    <path class="fil0" d="M65220 14893c274,2263 1326,2671 3474,2671 1554,0 3382,-91 5484,-317l411 2716c-1508,724 -3656,1086 -6399,1086 -5484,0 -7679,-2173 -7679,-7606 0,-5432 1874,-7695 7495,-7695 3656,0 6947,860 6993,5070 0,2943 -1600,4075 -4479,4075l-5302 0 1 0zm-91 -2625l4160 0c1051,0 1371,-498 1371,-1494 0,-1675 -1051,-1810 -2514,-1810 -2514,0 -2925,996 -3062,3350l45 -45z"/>
   </g>
   <path class="fil1" d="M67003 21050c-2148,-136 -3702,-724 -4708,-1720 -1005,-996 -1554,-2536 -1737,-4617l6399 6338 46 0zm-6536 -6474c-503,3757 -3337,6745 -6947,7379l-3931 -3893c320,226 823,407 1188,453 640,-407 457,-1358 1417,-1313 777,45 777,906 1325,1313 366,0 960,-226 1234,-453 228,-770 -549,-1268 46,-1901 595,-634 1234,45 1965,-45 274,-362 457,-815 503,-1222 -457,-634 -1372,-544 -1326,-1403 46,-860 960,-679 1326,-1403 0,-271 -137,-633 -320,-951l0 0 3519 3485 0 -45zm-3931 -3757l-1737 -1720 0 0c137,453 -594,996 -92,1584 595,724 1097,91 1828,136l1 0zm-4433 -1132l-1188 -1177 0 0c411,453 457,1177 1188,1177zm-2605 8285c-137,-724 639,-1313 -92,-1947 -549,-453 -1143,181 -1828,45l1919 1901zm-2331 -5749l1189 1177c0,-770 -731,-724 -1189,-1177z"/>
  </g>
 </g>
</svg>
